Coordinates
version=1
nRows=14
nColumns=63
inDegrees=yes

Units are S.I. units (second, meters, Newtons, ...)
If the header above contains a line with 'inDegrees', this indicates whether rotational values are in degrees (yes) or radians (no).

endheader
time	pelvis_tilt	pelvis_list	pelvis_rotation	pelvis_tx	pelvis_ty	pelvis_tz	hip_flexion_r	hip_adduction_r	hip_rotation_r	knee_angle_r	knee_angle_r_beta	ankle_angle_r	subtalar_angle_r	mtp_angle_r	hip_flexion_l	hip_adduction_l	hip_rotation_l	knee_angle_l	knee_angle_l_beta	ankle_angle_l	subtalar_angle_l	mtp_angle_l	L5_S1_Flex_Ext	L5_S1_Lat_Bending	L5_S1_axial_rotation	L4_L5_Flex_Ext	L4_L5_Lat_Bending	L4_L5_axial_rotation	L3_L4_Flex_Ext	L3_L4_Lat_Bending	L3_L4_axial_rotation	L2_L3_Flex_Ext	L2_L3_Lat_Bending	L2_L3_axial_rotation	L1_L2_Flex_Ext	L1_L2_Lat_Bending	L1_L2_axial_rotation	L1_T12_Flex_Ext	L1_T12_Lat_Bending	L1_T12_axial_rotation	Abs_r3	Abs_r2	Abs_r1	Abs_t1	Abs_t2	neck_flexion	neck_bending	neck_rotation	arm_flex_r	arm_add_r	arm_rot_r	elbow_flex_r	pro_sup_r	wrist_flex_r	wrist_dev_r	arm_flex_l	arm_add_l	arm_rot_l	elbow_flex_l	pro_sup_l	wrist_flex_l	wrist_dev_l
0.000000	-2.274069	-7.611180	89.409559	0.303928	0.937531	0.656407	-5.310832	-0.470822	7.640156	2.917395	0.050918	26.443060	3.579468	0.000000	-4.824631	-1.338224	6.198282	2.631682	0.045932	26.556762	-10.667174	0.000000	-0.150478	-0.067295	1.536193	-0.279452	-0.089502	1.632205	-0.247220	-0.163621	1.632205	-0.171981	-0.163621	1.344169	-0.139734	-0.137228	1.248157	-0.085983	-0.104240	1.152145	-1.074848	-0.761252	8.543847	0.000000	0.000000	15.123263	-3.175406	-14.063502	2.089645	-4.211924	19.334254	87.042625	49.938714	-10.936966	12.134901	10.079765	-6.869742	23.402361	86.126866	61.370481	-18.497701	18.255205
0.020408	-2.078923	-7.943131	89.629414	0.303676	0.937005	0.656700	-4.888194	-0.261992	6.921462	3.106563	0.054220	26.677741	3.848792	0.000000	-4.321949	-1.550072	5.093979	3.298264	0.057566	26.492804	-9.683260	0.000000	-0.148068	-0.039866	1.580200	-0.274977	-0.053022	1.678963	-0.243261	-0.096931	1.678963	-0.169227	-0.096931	1.382675	-0.137496	-0.081295	1.283913	-0.084606	-0.061753	1.185150	-1.057636	-0.450975	8.788599	0.000000	0.000000	15.995492	-3.164985	-13.886724	0.260774	-5.067620	18.749348	88.750558	58.038436	-6.629758	12.998413	9.330564	-8.634804	24.604091	87.572355	62.439816	-12.274212	19.242261
0.040816	-1.898187	-8.209501	89.811876	0.303472	0.936601	0.656991	-4.540183	-0.063805	6.420378	3.263133	0.056952	26.830716	3.929986	0.000000	-3.916689	-1.744265	4.163210	3.823457	0.066732	26.435238	-8.828184	0.000000	-0.145630	-0.016419	1.611244	-0.270450	-0.021837	1.711947	-0.239256	-0.039920	1.711947	-0.166441	-0.039920	1.409839	-0.135232	-0.033481	1.309136	-0.083213	-0.025433	1.208433	-1.040223	-0.185731	8.961257	0.000000	0.000000	16.750658	-3.087955	-13.649250	-1.325727	-5.839190	18.315220	90.198847	64.981290	-2.730953	13.812070	8.652136	-10.182859	25.719636	88.784942	63.209225	-6.807428	20.153228
0.061224	-1.731800	-8.416168	89.961376	0.303310	0.936308	0.657274	-4.261103	0.123225	6.115360	3.388904	0.059148	26.909622	3.842256	0.000000	-3.599186	-1.921133	3.390959	4.221529	0.073680	26.385317	-8.090658	0.000000	-0.143247	0.003317	1.630620	-0.266025	0.004411	1.732534	-0.235341	0.008064	1.732534	-0.163717	0.008064	1.426792	-0.133019	0.006763	1.324879	-0.081852	0.005137	1.222965	-1.023201	0.037518	9.069019	0.000000	0.000000	17.395921	-2.953821	-13.359894	-2.685358	-6.529171	18.014532	91.408149	70.849012	0.769489	14.577353	8.042065	-11.526951	26.749586	89.784298	63.705693	-2.059786	20.989880
0.081633	-1.579699	-8.569005	90.082342	0.303183	0.936115	0.657544	-4.045257	0.298588	5.984864	3.485674	0.060836	26.922100	3.604807	0.000000	-3.359773	-2.081004	2.762212	4.506748	0.078658	26.344297	-7.459392	0.000000	-0.141002	0.019608	1.639621	-0.261854	0.026079	1.742097	-0.231651	0.047675	1.742097	-0.161151	0.047675	1.434668	-0.130934	0.039985	1.332192	-0.080568	0.030373	1.229716	-1.007160	0.221811	9.119079	0.000000	0.000000	17.938439	-2.772087	-13.027469	-3.833620	-7.140101	17.829943	92.399122	75.723338	3.881609	15.295747	7.497935	-12.680121	27.694532	90.590092	63.956204	2.006274	21.753988
0.102041	-1.441821	-8.673890	90.179206	0.303083	0.936012	0.657796	-3.886951	0.461772	6.007342	3.555242	0.062051	26.875789	3.236842	0.000000	-3.188783	-2.224208	2.261953	4.693383	0.081915	26.313430	-6.923096	0.000000	-0.138976	0.032725	1.639541	-0.258092	0.043524	1.742012	-0.228323	0.079567	1.742012	-0.158835	0.079567	1.434598	-0.129053	0.066732	1.332127	-0.079411	0.050690	1.229656	-0.992690	0.370187	9.118634	0.000000	0.000000	18.385369	-2.552257	-12.660788	-4.786012	-7.674515	17.744115	93.192422	79.686004	6.615447	15.968734	7.017331	-13.655413	28.555063	91.221995	63.987741	5.428314	22.447324
0.122449	-1.318106	-8.736695	90.256397	0.303003	0.935987	0.658025	-3.780486	0.612266	6.161251	3.599406	0.062821	26.778329	2.757567	0.000000	-3.076550	-2.351074	1.875169	4.795703	0.083701	26.293970	-6.470483	0.000000	-0.137253	0.042935	1.631674	-0.254892	0.057103	1.733654	-0.225492	0.104391	1.733654	-0.156866	0.104391	1.427715	-0.127453	0.087552	1.325735	-0.078426	0.066506	1.223755	-0.980382	0.485686	9.074881	0.000000	0.000000	18.743871	-2.303837	-12.268664	-5.558036	-8.134951	17.739708	93.808705	82.818748	8.981044	16.597796	6.597837	-14.465871	29.331770	91.699677	63.827290	8.243896	23.071662
0.142857	-1.208489	-8.763298	90.318345	0.302937	0.936029	0.658226	-3.720168	0.749558	6.425046	3.619965	0.063180	26.637360	2.186187	0.000000	-3.013409	-2.461931	1.586843	4.827977	0.084264	26.287171	-6.090263	0.000000	-0.135915	0.050507	1.617314	-0.252407	0.067174	1.718396	-0.223295	0.122803	1.718396	-0.155337	0.122803	1.415150	-0.126211	0.102994	1.314067	-0.077662	0.078235	1.212985	-0.970826	0.571346	8.995014	0.000000	0.000000	19.021101	-2.036332	-11.859909	-6.165191	-8.523945	17.799383	94.268628	85.203303	10.988439	17.184416	6.237036	-15.124535	30.025241	92.042809	63.501835	10.490581	23.628773
0.163265	-1.112910	-8.759574	90.369481	0.302877	0.936128	0.658394	-3.700299	0.873137	6.777181	3.618717	0.063159	26.460521	1.541905	0.000000	-2.989692	-2.557107	1.381962	4.804473	0.083854	26.294288	-5.771147	0.000000	-0.135045	0.055710	1.597755	-0.250792	0.074095	1.697614	-0.221866	0.135454	1.697614	-0.154343	0.135454	1.398035	-0.125403	0.113604	1.298176	-0.077165	0.086295	1.198316	-0.964614	0.630205	8.886231	0.000000	0.000000	19.224219	-1.759245	-11.443338	-6.622977	-8.844035	17.905801	94.592849	86.921408	12.647674	17.730078	5.932513	-15.644450	30.636068	92.271059	63.038359	12.205931	24.120431
0.183673	-1.031307	-8.731397	90.414234	0.302817	0.936273	0.658524	-3.715184	0.982491	7.196111	3.597461	0.062788	26.255451	0.843928	0.000000	-2.995733	-2.636933	1.245510	4.739459	0.082719	26.316574	-5.501845	0.000000	-0.134726	0.058813	1.574290	-0.250200	0.078221	1.672683	-0.221341	0.142998	1.672683	-0.153978	0.142998	1.377504	-0.125107	0.119931	1.279110	-0.076982	0.091101	1.180717	-0.962335	0.665304	8.755728	0.000000	0.000000	19.360383	-1.482083	-11.027763	-6.946896	-9.097757	18.041622	94.802023	88.054797	13.968787	18.236263	5.681852	-16.038659	31.164840	92.404100	62.463847	13.427507	24.548407
0.204082	-0.963616	-8.684643	90.457034	0.302750	0.936453	0.658611	-3.759126	1.077109	7.660291	3.557996	0.062099	26.029791	0.111460	0.000000	-3.021866	-2.701738	1.162473	4.647205	0.081109	26.355282	-5.271068	0.000000	-0.135040	0.060084	1.548214	-0.250784	0.079911	1.644977	-0.221858	0.146088	1.644977	-0.154338	0.146088	1.354687	-0.125399	0.122523	1.257924	-0.077162	0.093070	1.161160	-0.964580	0.679680	8.610699	0.000000	0.000000	19.436750	-1.214348	-10.621998	-7.152446	-9.287648	18.189508	94.916808	88.685206	14.961820	18.704455	5.482638	-16.320204	31.612147	92.461601	61.805283	14.192870	24.914475
0.224490	-0.920815	-8.626318	90.523984	0.302659	0.936679	0.658638	-3.825467	1.143047	8.032435	3.490188	0.060915	25.846446	-0.474951	0.000000	-3.047651	-2.739113	1.129908	4.535235	0.079155	26.442604	-5.099418	0.000000	-0.138575	0.060165	1.507558	-0.257348	0.080019	1.601780	-0.227665	0.146284	1.601780	-0.158377	0.146284	1.319113	-0.128681	0.122688	1.224890	-0.079182	0.093195	1.130668	-0.989828	0.680595	8.384583	0.000000	0.000000	19.382228	-1.005119	-10.166895	-7.240375	-9.406932	18.356723	94.962736	89.343898	15.789213	19.030811	5.269184	-16.581025	31.838239	92.546008	61.162218	14.986921	25.240468
0.244898	-0.886943	-8.567614	90.583322	0.302538	0.936900	0.658599	-3.911027	1.198027	8.532242	3.397546	0.059298	25.604583	-1.250656	0.000000	-3.070049	-2.764182	1.121512	4.446149	0.077600	26.516553	-4.966170	0.000000	-0.142618	0.059298	1.477345	-0.264856	0.078866	1.569679	-0.234307	0.144177	1.569679	-0.162998	0.144177	1.292677	-0.132435	0.120920	1.200343	-0.081492	0.091852	1.108009	-1.018707	0.670789	8.216549	0.000000	0.000000	19.312641	-0.828287	-9.785890	-7.212202	-9.465442	18.439444	94.970293	89.426140	16.122974	19.445861	5.168464	-16.667336	32.009862	92.531236	60.495691	15.098481	25.463961
0.265306	-0.859778	-8.517377	90.660931	0.302365	0.937106	0.658509	-4.002963	1.245213	9.063570	3.293628	0.057485	25.332923	-2.106745	0.000000	-3.068250	-2.783523	1.095849	4.400538	0.076804	26.593724	-4.797736	0.000000	-0.146596	0.057926	1.448997	-0.272243	0.077041	1.539560	-0.240842	0.140841	1.539560	-0.167544	0.140841	1.267873	-0.136129	0.118122	1.177310	-0.083765	0.089727	1.086748	-1.047119	0.655268	8.058889	0.000000	0.000000	19.259373	-0.671482	-9.441200	-7.079066	-9.497651	18.538766	94.953776	88.744714	15.889507	19.858275	5.132334	-16.620329	32.100939	92.480507	59.857354	14.589812	25.629435
